<svg id="グループ_12" data-name="グループ 12" xmlns="http://www.w3.org/2000/svg" xmlns:xlink="http://www.w3.org/1999/xlink" width="87" height="42.604" viewBox="0 0 87 42.604">
  <defs>
    <clipPath id="clip-path">
      <rect id="長方形_19" data-name="長方形 19" width="87" height="42.604" fill="none"/>
    </clipPath>
  </defs>
  <g id="グループ_11" data-name="グループ 11" clip-path="url(#clip-path)">
    <path id="パス_2" data-name="パス 2" d="M12.478,38.379c-3.579,0-8.4-3.033-8.4-7.507a12.048,12.048,0,0,1,.05-1.342A7.892,7.892,0,0,1,0,22.669C0,10.589,17.4,0,28.436,0A9.267,9.267,0,0,1,38.13,9.595c0,12.279-15.361,28.784-25.652,28.784M6.562,30.723v1.044c0,3.082,1.939,5.419,4.922,5.419,11.285,0,25.8-15.212,25.8-27.889a7.856,7.856,0,0,0-8.252-8.153c-10.141,0-26.895,10.49-26.895,22.968a6.194,6.194,0,0,0,2.088,4.524C5.816,16.008,20.681,5.071,29.878,5.071a3.254,3.254,0,0,1,2.833,2.485c0,.2-.2.2-.348.2C21.526,7.755,7.9,18.2,6.662,30.026a10.38,10.38,0,0,0,3.43.5A28.134,28.134,0,0,0,25.9,25.1c.248-.2.348-.3.447-.3a.227.227,0,0,1,.2.248c0,.1-.149.249-.3.4-1.441,1.442-7.457,6.115-14.665,6.115a15.894,15.894,0,0,1-5.021-.845" fill="#036"/>
    <path id="パス_3" data-name="パス 3" d="M164.089,14.317c4.275-2.038,10.291-7.258,10.291-10.142a2.1,2.1,0,0,0-2.237-2.187c-10.887,0-32.214,14.019-32.214,22.57a2.468,2.468,0,0,0,2.685,2.386c5.717,0,12.627-4.076,18-4.076,2.585,0,5.021,2.337,5.021,4.673a15.775,15.775,0,0,1,2.883-.3,1.2,1.2,0,0,1,1.143.8c0,.149-.1.2-.3.2a33.929,33.929,0,0,0-3.927.249c-1.74,5.12-14.516,14.119-19.537,14.119-1.541,0-3.58-1.044-3.58-2.983,0-3.729,11.335-9.147,19.885-11.385a5.688,5.688,0,0,0,.447-2.137,2.388,2.388,0,0,0-2.685-2.535c-4.275,0-13.522,4.574-18.344,4.574-2.287,0-4.822-1.69-4.822-3.977C136.8,14.715,159.117,0,170.7,0a4.086,4.086,0,0,1,4.375,3.977c0,3.927-9.4,11.335-10.291,11.335-.3,0-.944-.5-.944-.746,0-.1.1-.2.248-.248M161.9,29.032c-9.3,2.038-17.449,7.208-17.449,11.583a1.463,1.463,0,0,0,1.641,1.392c3.679,0,13.075-7.159,15.809-12.975" transform="translate(-99.013)" fill="#036"/>
    <path id="パス_4" data-name="パス 4" d="M286.479,17.724c0,1.74-3.679,4.574-4.176,4.574-.2,0-.249-.1-.249-.3s1.939-2.834,1.939-4.922a4,4,0,0,0-.547-1.79.287.287,0,0,1,.3-.3c.3,0,2.734.994,2.734,2.734m4.673-.5c0,1.491-3.48,5.319-4.325,5.319-.249,0-.348-.1-.348-.348s2.188-2.883,2.188-5.717a5.583,5.583,0,0,0-.2-1.293.28.28,0,0,1,.3-.248c.646,0,2.386,1.193,2.386,2.287" transform="translate(-204.152 -10.814)" fill="#036"/>
  </g>
</svg>
