<svg xmlns="http://www.w3.org/2000/svg" width="33.029" height="33.029" viewBox="0 0 33.029 33.029">
  <g id="Icon_feather-arrow-right" data-name="Icon feather-arrow-right" transform="translate(-6 -6)">
    <path id="パス_41" data-name="パス 41" d="M37.529,19.5H7.5a1.5,1.5,0,0,1,0-3H37.529a1.5,1.5,0,0,1,0,3Z" transform="translate(0 4.515)" fill="#fff"/>
    <path id="パス_42" data-name="パス 42" d="M18,39.029a1.5,1.5,0,0,1-1.061-2.561L30.893,22.515,16.939,8.561a1.5,1.5,0,0,1,2.121-2.121L34.075,21.454a1.5,1.5,0,0,1,0,2.121L19.061,38.59A1.5,1.5,0,0,1,18,39.029Z" transform="translate(4.515 0)" fill="#fff"/>
  </g>
</svg>
