<svg xmlns="http://www.w3.org/2000/svg" width="42.393" height="34.515" viewBox="0 0 42.393 34.515">
  <g id="Icon_feather-mail" data-name="Icon feather-mail" transform="translate(-1.5 -4.5)">
    <path id="パス_44" data-name="パス 44" d="M6.939,4.5H38.454a5.445,5.445,0,0,1,5.439,5.439V33.575a5.445,5.445,0,0,1-5.439,5.439H6.939A5.445,5.445,0,0,1,1.5,33.575V9.939A5.445,5.445,0,0,1,6.939,4.5ZM38.454,36.015a2.442,2.442,0,0,0,2.439-2.439V9.939A2.442,2.442,0,0,0,38.454,7.5H6.939A2.442,2.442,0,0,0,4.5,9.939V33.575a2.442,2.442,0,0,0,2.439,2.439Z" fill="#ebbc50"/>
    <path id="パス_45" data-name="パス 45" d="M22.7,24.288a1.5,1.5,0,0,1-.86-.271L2.14,10.229A1.5,1.5,0,0,1,3.86,7.771L22.7,20.957,41.533,7.771a1.5,1.5,0,0,1,1.72,2.458l-19.7,13.788A1.5,1.5,0,0,1,22.7,24.288Z" transform="translate(0 0.939)" fill="#ebbc50"/>
  </g>
</svg>
